<svg xmlns="http://www.w3.org/2000/svg" width="20.751" height="20.75" viewBox="0 0 20.751 20.75">
  <path id="Icon_ionic-md-settings" data-name="Icon ionic-md-settings" d="M21.63,14.788a6.488,6.488,0,0,0,.053-1.038c0-.363-.053-.674-.053-1.038L23.858,11a.476.476,0,0,0,.106-.674l-2.122-3.58a.517.517,0,0,0-.637-.208L18.552,7.577a7.723,7.723,0,0,0-1.8-1.038L16.377,3.79a.569.569,0,0,0-.531-.415H11.6a.569.569,0,0,0-.531.415l-.424,2.749a8.985,8.985,0,0,0-1.8,1.038L6.189,6.539a.5.5,0,0,0-.637.208L3.43,10.327A.627.627,0,0,0,3.536,11l2.282,1.712c0,.363-.053.674-.053,1.038s.053.674.053,1.038L3.59,16.5a.477.477,0,0,0-.106.674l2.122,3.58a.517.517,0,0,0,.637.208L8.9,19.924a7.722,7.722,0,0,0,1.8,1.038l.424,2.749a.514.514,0,0,0,.531.415H15.9a.569.569,0,0,0,.531-.415l.425-2.749a8.98,8.98,0,0,0,1.8-1.038l2.653,1.038a.5.5,0,0,0,.637-.208l2.122-3.58a.626.626,0,0,0-.106-.674Zm-7.906,2.594a3.632,3.632,0,1,1,3.714-3.631A3.651,3.651,0,0,1,13.724,17.382Z" transform="translate(-3.375 -3.375)" fill="#fff"/>
</svg>
