<svg xmlns="http://www.w3.org/2000/svg" width="17.659" height="25.685" viewBox="0 0 17.659 25.685">
  <path id="Icon_awesome-microphone" data-name="Icon awesome-microphone" d="M8.829,17.659a4.816,4.816,0,0,0,4.816-4.816V4.816a4.816,4.816,0,1,0-9.632,0v8.027A4.816,4.816,0,0,0,8.829,17.659Zm8.027-8.027h-.8a.8.8,0,0,0-.8.8v2.408a6.429,6.429,0,0,1-7.063,6.39,6.616,6.616,0,0,1-5.78-6.676V10.435a.8.8,0,0,0-.8-.8H.8a.8.8,0,0,0-.8.8v2.015a9.106,9.106,0,0,0,7.625,9.115v1.713H4.816a.8.8,0,0,0-.8.8v.8a.8.8,0,0,0,.8.8h8.027a.8.8,0,0,0,.8-.8v-.8a.8.8,0,0,0-.8-.8H10.033V21.583a8.838,8.838,0,0,0,7.625-8.74V10.435A.8.8,0,0,0,16.856,9.632Z" fill="#87a5c1"/>
</svg>
