<svg xmlns="http://www.w3.org/2000/svg" width="22.86" height="22.86" viewBox="0 0 22.86 22.86">
  <path id="Icon_awesome-phone-alt" data-name="Icon awesome-phone-alt" d="M22.208,16.154l-5-2.143a1.072,1.072,0,0,0-1.25.308l-2.215,2.706A16.55,16.55,0,0,1,5.831,9.114L8.537,6.9a1.069,1.069,0,0,0,.308-1.25L6.7.648A1.079,1.079,0,0,0,5.474.027L.83,1.1A1.072,1.072,0,0,0,0,2.143,20.715,20.715,0,0,0,20.717,22.861a1.072,1.072,0,0,0,1.045-.83l1.072-4.644a1.085,1.085,0,0,0-.626-1.232Z" transform="translate(0 0)" fill="#87a5c1"/>
</svg>
