<svg xmlns="http://www.w3.org/2000/svg" width="16.599" height="16.599" viewBox="0 0 16.599 16.599">
  <path id="Icon_awesome-plus" data-name="Icon awesome-plus" d="M15.413,8.771H10.078V3.436A1.186,1.186,0,0,0,8.892,2.25H7.707A1.186,1.186,0,0,0,6.521,3.436V8.771H1.186A1.186,1.186,0,0,0,0,9.957v1.186a1.186,1.186,0,0,0,1.186,1.186H6.521v5.335a1.186,1.186,0,0,0,1.186,1.186H8.892a1.186,1.186,0,0,0,1.186-1.186V12.328h5.335A1.186,1.186,0,0,0,16.6,11.142V9.957A1.186,1.186,0,0,0,15.413,8.771Z" transform="translate(0 -2.25)" fill="#fff"/>
</svg>
