<svg xmlns="http://www.w3.org/2000/svg" width="15.118" height="12.599" viewBox="0 0 15.118 12.599">
  <path id="Icon_awesome-volume-up" data-name="Icon awesome-volume-up" d="M5.644,2.57,3.309,4.9H.63a.63.63,0,0,0-.63.63V9.314a.63.63,0,0,0,.63.63H3.309l2.335,2.335a.63.63,0,0,0,1.075-.445V3.015A.63.63,0,0,0,5.644,2.57Zm6.124-1.341a.635.635,0,0,0-.7,1.062,6.132,6.132,0,0,1,0,10.266.635.635,0,1,0,.7,1.062,7.4,7.4,0,0,0,0-12.39ZM12.6,7.424a4.846,4.846,0,0,0-2.251-4.1.627.627,0,0,0-.869.2.637.637,0,0,0,.194.876,3.587,3.587,0,0,1,0,6.059.637.637,0,0,0-.194.876.628.628,0,0,0,.869.2A4.846,4.846,0,0,0,12.6,7.424ZM8.877,5.406a.63.63,0,0,0-.608,1.1,1.035,1.035,0,0,1,0,1.827.63.63,0,0,0,.608,1.1,2.295,2.295,0,0,0,0-4.035Z" transform="translate(0 -1.125)" fill="#87a5c1"/>
</svg>
