<svg xmlns="http://www.w3.org/2000/svg" width="12.599" height="12.599" viewBox="0 0 12.599 12.599">
  <path id="Icon_awesome-volume-down" data-name="Icon awesome-volume-down" d="M7.055,4.8,4.136,7.72H.787A.787.787,0,0,0,0,8.507v4.725a.787.787,0,0,0,.787.787H4.136l2.919,2.918A.788.788,0,0,0,8.4,16.381V5.358A.788.788,0,0,0,7.055,4.8ZM11.1,8.347a.788.788,0,0,0-.76,1.38,1.294,1.294,0,0,1,0,2.285.788.788,0,0,0,.76,1.38,2.869,2.869,0,0,0,0-5.044Z" transform="translate(0 -4.57)" fill="#87a5c1"/>
</svg>
